<?xml version="1.0" encoding="utf-8"?>
<!-- Generator: Adobe Illustrator 19.1.0, SVG Export Plug-In . SVG Version: 6.00 Build 0)  -->
<svg version="1.1" id="Layer_1" xmlns="http://www.w3.org/2000/svg" xmlns:xlink="http://www.w3.org/1999/xlink" x="0px" y="0px"
	 width="200px" height="200px" viewBox="0 0 200 200" style="enable-background:new 0 0 200 200;" xml:space="preserve">
<style type="text/css">
	.st0{fill:#FFFFFF;}
</style>
<g>
	<path class="st0" d="M84.7,92c1.6-1.2,2.3-3.2,2.3-5.8c0-1.4-0.3-2.7-0.8-3.6c-0.5-0.9-1.2-1.7-2.1-2.2c-0.9-0.5-1.9-0.9-3-1.1
		C80,79.1,78.9,79,77.7,79H65v15h13.7C81.1,94,83.1,93.2,84.7,92z"/>
	<path class="st0" d="M129.7,93.6c-2,0-3.6,0.3-4.9,1c-1.3,0.7-2.3,1.5-3.1,2.5c-0.8,1-1.3,1.9-1.6,3c-0.3,1.1-0.5,1.9-0.6,2.9h20
		c-0.6-3-1.6-5.4-3.1-7C134.9,94.4,132.7,93.6,129.7,93.6z"/>
	<path class="st0" d="M86.9,104.9c-1.8-1.4-4.2-1.9-7.1-1.9H65v17h14.5c1.3,0,2.6-0.2,3.8-0.5c1.2-0.3,2.3-0.7,3.2-1.3
		c0.9-0.6,1.7-1.5,2.2-2.5c0.5-1,0.8-2.3,0.8-4C89.5,108.5,88.6,106.3,86.9,104.9z"/>
	<path class="st0" d="M100,0C44.8,0,0,44.8,0,100c0,55.2,44.8,100,100,100s100-44.8,100-100C200,44.8,155.2,0,100,0z M118,73h25v5
		h-25V73z M101.3,120.6c-1.2,2.3-2.8,4.1-4.9,5.6c-2.1,1.4-4.4,2.3-7,3c-2.6,0.7-5.3,0.8-8.1,0.8H51V68h29.4c2.9,0,5.6,0.5,8.1,1
		c2.4,0.5,4.5,1.5,6.2,2.7c1.7,1.2,3.1,2.8,4,4.8c1,2,1.4,4.4,1.4,7.3c0,3.1-0.7,5.7-2.1,7.8c-1.4,2.1-3.5,3.8-6.3,5.1
		c3.8,1.1,6.7,3,8.5,5.8c1.9,2.7,2.8,6.1,2.8,9.9C103.2,115.6,102.6,118.3,101.3,120.6z M151.8,111h-32.4c0.2,4,1.2,6.9,3,8.7
		c1.8,1.8,4.5,2.7,8,2.7c2.5,0,4.6-0.4,6.4-1.6c1.8-1.2,2.9-2.7,3.3-3.7H151c-1.7,5-4.4,9-8,11.3c-3.6,2.3-7.9,3.3-13,3.3
		c-3.5,0-6.7-0.6-9.5-1.8c-2.8-1.1-5.2-2.8-7.2-4.8c-2-2.1-3.5-4.6-4.6-7.5c-1.1-2.9-1.6-6.1-1.6-9.5c0-3.4,0.5-6.5,1.6-9.4
		c1.1-2.9,2.7-5.4,4.7-7.5c2-2.1,4.4-3.8,7.2-5c2.8-1.2,5.9-1.8,9.3-1.8c3.8,0,7.1,0.7,10,2.2c2.8,1.5,5.2,3.5,7,5.9
		c1.8,2.5,3.1,5.3,3.9,8.5C151.8,104.2,152,108,151.8,111z"/>
</g>
</svg>
