<?xml version="1.0" encoding="utf-8"?>
<!-- Generator: Adobe Illustrator 19.1.0, SVG Export Plug-In . SVG Version: 6.00 Build 0)  -->
<svg version="1.1" id="Layer_1" xmlns="http://www.w3.org/2000/svg" xmlns:xlink="http://www.w3.org/1999/xlink" x="0px" y="0px"
	 width="200px" height="200px" viewBox="0 0 200 200" style="enable-background:new 0 0 200 200;" xml:space="preserve">
<style type="text/css">
	.st0{fill:#FFFFFF;}
</style>
<path class="st0" d="M100,0C44.8,0,0,44.8,0,100c0,55.2,44.8,100,100,100s100-44.8,100-100C200,44.8,155.2,0,100,0z M128,66
	c0,0-7.4,0-11.3,0c-3.9,0-8,3.5-8,9.6c0,1.3,0,5.4,0,12.4h19l-3.4,18h-15.6c0,23,0.1,50,0.1,50H89c0,0,0-26,0-50H73V88h16
	c0-8,0-14.8,0-18.8c0-18,21.2-20.2,21.2-20.2H128V66z"/>
</svg>
