<?xml version="1.0" encoding="utf-8"?>
<!-- Generator: Adobe Illustrator 19.1.0, SVG Export Plug-In . SVG Version: 6.00 Build 0)  -->
<svg version="1.1" id="Layer_1" xmlns="http://www.w3.org/2000/svg" xmlns:xlink="http://www.w3.org/1999/xlink" x="0px" y="0px"
	 width="1356.7px" height="244px" viewBox="0 0 1356.7 244" style="enable-background:new 0 0 1356.7 244;" xml:space="preserve">
<style type="text/css">
	.st0{fill:#FFFFFF;}
</style>
<g>
	<polygon class="st0" points="664.9,91 648.7,137 681.3,137 665.3,91 	"/>
	<path class="st0" d="M-0.1,0v244h1357V0H-0.1z M563.9,143.6c0,30.3-16.6,50.5-50,50.5c-16.8,0-29.8-8-38.8-21.1l22.6-22.7
		c4.4,5.7,10.7,12.2,15.9,12.2c11.6,0,11.3-13.1,11.3-21.1V47h39V143.6z M701.7,190l-9.8-25h-54l-10.4,25H586l58-143h42.8l56.8,143
		H701.7z M893.9,159v31H764.1l71.4-112h-58.6V47h124.2l-71,112H893.9z"/>
</g>
</svg>
