<?xml version="1.0" encoding="utf-8"?>
<!-- Generator: Adobe Illustrator 19.1.0, SVG Export Plug-In . SVG Version: 6.00 Build 0)  -->
<svg version="1.1" id="Layer_1" xmlns="http://www.w3.org/2000/svg" xmlns:xlink="http://www.w3.org/1999/xlink" x="0px" y="0px"
	 width="200px" height="200px" viewBox="0 0 200 200" style="enable-background:new 0 0 200 200;" xml:space="preserve">
<style type="text/css">
	.st0{fill:#FFFFFF;}
</style>
<path class="st0" d="M114,38.6l3.7-2.3c0,0-3.4-9.2-10.1-8.9c-6.6,0.3-14.9,10.9-7.5,26.4c6.5,13.4,13.8,2.3,11.2-1.1
	c-2.6-3.4-4.3-1.7-4.3-1.7s-3.7-7.8-1.4-14.4S114,38.6,114,38.6z"/>
<path class="st0" d="M142.4,38c0,0-6.9-6.5-18.1-7.5c0,0-5.7-12.1-20.4-7.8s-14,16.4-11,28.4s8.5,13.2,8.5,13.2s3.2,12.4-8.5,20.6
	c0,0,23.3,2.4,23.9,11s6.1,18.4,17.9,20.7c11.8,2.3,16.6,11.5,17.7,28.2c0,0-3.7-7.2-7.2-6.6c0,0,10.1,37.9-9.5,49.1
	c0,0,4.9-5,1.1-12.1c0,0-8.6,15.3-27.6,17.3c0,0,11.2-8,4.9-12.9c-6.3-4.9-13.2,5.3-23,5.4s-14.9-2.5-17.2-8.2
	c0,0,12.9,4.3,13.8-6.3c0.9-10.6-12.6-15.8-13.8-20.7c0,0-4.3,7.2,0,12.9c0,0-7.5,1.4-16.1-11.2s-3.4-19.2-8.9-22.1
	c-5.5-2.9-12.1,4.6-7.5,12.1c0,0-12.1-5.5-10.9-19.2c0,0-4.9,4.3-4.3,8.3c0,0-6.2-19.8,7-35.9c0,0-7.7,2.6-7.7,7.2
	c0,0-2-14.9,9.8-31.3c0,0-5.2,0.1-7.8,3.6c0,0-2.3-14.2,18.7-30c0,0-6-2-8.9,0c0,0,6.9-10.7,26.7-16.7c0,0,2.3-4.4-2-5.5
	c0,0,8.5-6.5,30.9-2.8c0,0-1.9-5.5-9.4-6.6c0,0,18.7-7.8,30.5,3.4c0,0-1.4-6-5.5-8.9c0,0,11.7-2.2,16.7,11.2c0,0,2.3-3.2,1.7-5.2
	c0,0,9.4,4.3,8.9,14.4c0,0,2.3-5.7,2.3-7.8C138.1,19.6,150.7,27.7,142.4,38z"/>
<path class="st0" d="M169.8,87.4c-1.2-1-3.3-2.3-5.8-2.4c-4-0.2-6.3-4.8-6.3-4.8s8.6,3.4,17.2,1.7c0,0-9.2-18.1-22.1-23
	c0,0-0.3,4.6-3.7,6.3s-5.2,4.3-5.2,4.3s-4-4.6-9.2-5.5c0,0,5.5-4.9,8.6-5.2c3.2-0.3,4.8,2.5,8.2-1c0,0-0.8-9.4-12-17.7
	c-11.2-8.3-14.9-5.5-14.9-5.5s-0.6,5.5-6,6c0,0,3.2,19.4-12.1,22.4c0,0,2.3,13.8-5.2,21.7c0,0,12.4-0.5,16.5,6.2
	c4.2,6.6,3.7,14.2,14.9,20.2c0,0-7.5-9.2-1.5-14.7c3.9-3.5,11.2-3.7,13.5,1.9c2.7,6.8-0.6,9.8-0.6,9.8s8.2,5.9,17.8,5.4
	c4.6-0.2,5.5-13.2,5.5-13.2s-9.7-0.6-16.1,0.3c0,0,8.6-4.4,18.1-7l1.4-5.5c0,0,0.5-2,1.3-3.1C172.2,85.3,170.6,86.5,169.8,87.4z"/>
</svg>
