<?xml version="1.0" encoding="utf-8"?>
<!-- Generator: Adobe Illustrator 19.1.0, SVG Export Plug-In . SVG Version: 6.00 Build 0)  -->
<svg version="1.1" xmlns="http://www.w3.org/2000/svg" xmlns:xlink="http://www.w3.org/1999/xlink" x="0px" y="0px" width="111.7px"
	 height="63.6px" viewBox="0 0 111.7 63.6" style="enable-background:new 0 0 111.7 63.6;" xml:space="preserve">
<style type="text/css">
	.st0{fill:#FFFFFF;}
</style>
<g id="Layer_1">
</g>
<g id="Layer_2">
	<path class="st0" d="M22.9,20.4c-0.3,0.5-0.5,1.6-1,1.5s-0.6-1.6,0.5-3.3c1.1-1.7,4.2-2.3,5-1c0.8,1.2,1.7,4.6-3.2,10.2
		S13,29.6,12.4,26.7c-0.4-1.7-0.8-6.4,4.1-10.6c3.9-3.4,8.9-4.9,11.8-6.3S37,5,38.2,3.6c1.2-1.4,2.8-2.3,2.7-1s-4.1,9.7-5.8,13.5
		s-6.6,16.3-7.6,21c-1,4.8-2.5,18-7.6,21.9S8.1,61.9,5,57.6S3.9,45.8,9.4,40.7s11.2-6.4,14.1-7.1c2.9-0.7,9.9-0.6,12.6,2.3
		c2.7,3,1.8,8-1.2,9.5c-1.9,1-3.8,0.4-4.7-0.5c-0.8-0.9-1-2.1-0.7-3.3c0.3-1.3,1.4-1.2,1.2-0.2c-0.2,1,0.5,2,1.8,2
		c1.2,0,3.8-1.5,3.4-4.3c-0.4-2.8-2.3-3.9-5.3-4.5c-3.1-0.6-7.1,0-10.8,1.9s-9.1,6.6-10.6,11.9s-1,10.3,1.3,11.5s6.7-2,8.4-5.8
		c1.6-3.9,7.9-23.7,9-26s6.2-14.3,7-16.3s1.5-3.1,1.5-3.5c0-0.4-0.7-0.1-1.4,0.4c-0.7,0.5-10,5.3-14.3,8.2c-2.6,1.7-6.5,6.7-5.2,10
		c1,2.5,3.5,2.8,6.5,0.6s3.6-5.1,3.6-6.3C25.5,19.7,24.3,18.2,22.9,20.4z"/>
	<path class="st0" d="M77.7,32.1c-0.1,0.1-0.3,0.1-0.5,0.1c-0.9-0.4-1.4-1.5-1.1-2.4l4.4-13.5c0.1-0.3,0.5-0.5,0.8-0.4l0,0
		c0.8,0.3,1.3,1.2,1,2l-4.5,14C77.9,31.9,77.8,32,77.7,32.1z"/>
	<path class="st0" d="M83.1,10.1c-0.3-0.1-0.6,0.1-0.7,0.3L81.9,12c-0.1,0.7,0.3,1.4,0.9,1.7c0.1,0.1,0.3,0,0.4-0.1
		c0.1-0.1,0.1-0.1,0.1-0.2l0.6-2C84,10.9,83.7,10.3,83.1,10.1z"/>
	<path class="st0" d="M76.7,18.3c0.3-1.1-0.2-2.2-1.3-2.5h0c0,0-0.1,0-0.1,0l0,0c0,0-1-0.3-2.1,0.4c-1.1,0.7-0.9,1.3-2,1.3
		c-0.1-0.7-0.6-1.4-1.4-1.7h0c-0.1,0-0.1,0-0.2,0l0,0c0,0-1-0.3-2.1,0.4c-1.1,0.7-0.9,1.2-1.9,1.3c-0.1-0.7-0.5-1.4-1.2-1.6h0
		c-0.3-0.1-0.7,0.1-0.8,0.4l-2.3,7.1l-2.1,6.4c-0.3,1.1,0.1,2.2,1.1,2.5c0.3,0.1,0.7-0.1,0.8-0.4l4.3-13.1c0.3,0,0.7-0.1,1-0.4
		c0.8-0.7,1.9-1.3,2.1-0.5l0,0l-3.9,11.9c-0.3,1.1,0.2,2.2,1.3,2.5h0c0.3,0.1,0.7-0.1,0.8-0.4l4.3-13.1c0.3,0,0.7,0,1.1-0.4
		c0.7-0.6,1.8-1.3,2.1-0.6l-3.9,12c-0.1,0.2-0.1,0.4-0.1,0.6l0,0c0,0-0.6,1.5,1.1,2.7c1.7,1.2,3.3,0.1,3.6-0.3
		c0.2-0.3,0.1-0.8-0.4-0.5c-0.3,0.2-1.1,0.6-1.6,0c-0.3-0.4-0.3-0.9-0.2-1.3L76.7,18.3z"/>
	<path class="st0" d="M94.9,18.3c0.3-1-0.2-2.1-1.2-2.5l0,0c0,0,0,0,0,0c0,0,0,0-0.1,0c-0.1,0-0.1,0-0.2,0c-0.4-0.1-1.3-0.1-2.2,0.4
		c-1.3,0.7-1,1.3-2.5,1.3c-0.2,0-0.4,0-0.5-0.1c-0.1-0.7-0.6-1.4-1.4-1.6c-0.3-0.1-0.7,0.1-0.8,0.5l-4.4,13.4
		c-0.3,1.1,0.2,2.2,1.3,2.5c0.3,0.1,0.7-0.1,0.8-0.4l4.3-13.3c0.1,0.1,1,0.4,1.8-0.2c0.8-0.6,2.1-1.3,2.4-0.6l-3.5,10.7
		c0,0-0.2,0.5-0.4,1.2l0,0.1c-0.1,0.3-0.1,0.6-0.1,0.9c0,0.7,0.2,1.5,0.7,2.1c0.7,1,2.9,1.4,3.9,1.6c0.3,0.1,0.6-0.1,0.7-0.4l0,0
		c0.1-0.2-0.1-0.5-0.3-0.5c-0.6-0.2-1.6-0.7-2.1-1.7c-0.3-0.6-0.1-1.6,0.2-2.5L94.9,18.3z"/>
	<path class="st0" d="M105,28.1c-3.5,2.8-5.4,2.6-7.3,1.7c-1.9-0.9,0.3-5,0.3-5s2.9,0,5.2-0.4c2.3-0.4,4.8-2.6,5-5.2
		c0.2-2.6-2.6-3.7-4.9-3.2c-0.9,0.2-6.4,0.8-8.4,9.9c-1.6,7.5,4.5,6.6,6.5,6.2C106.1,30.8,109.6,24.5,105,28.1z M105.6,17.5
		c0.9,0,0.9,4.5-2,5.3c-2.9,0.8-5.2,0.4-5.2,0.4C100.7,19.1,102.9,17.4,105.6,17.5z"/>
	<path class="st0" d="M61.1,16.2c-0.3-1.2-4.4-0.2-6.2,1.4c-1.8,1.6-4.9,6.6-7.4,10.2c-2.5,3.6-3.2,1.3-3.2,1.3L48,17.8
		c0.3-0.8-0.2-1.8-1-2c-0.3-0.1-0.7,0.1-0.8,0.4l-0.4,1.2c-0.2-0.1-0.4-0.3-0.6-0.5c-0.7-0.4-2-1.2-4.2-0.5c-2.2,0.6-4.9,4.5-6,8.1
		c-1.1,3.6-1.2,7.5,2.3,7.7c2.5,0.1,3.2-0.3,4.1-1.5c0.1-0.2,0.3-0.3,0.4-0.4c0,0.7,0.4,1.4,1,1.8c0.1,0,0.1,0.1,0.2,0.1
		c0.2,0.1,0.7,0.1,1.1,0.1c0,0,0,0,0,0c0.2,0,0.4,0,0.5,0c1.4-0.2,2.2-0.5,5.3-5.7c3.6-6.1,6.2-8.2,6.2-8.2c-0.8,2.1-1,6.1-0.8,8.3
		c0.2,2.8-1.8,3.5-3.6,2.8c-0.6-0.2-0.9-0.8-1-1.3c0-0.2-0.4-0.3-0.4,0c-0.9,2.5,0.4,4.6,3.7,4.1c3.6-0.5,3.8-4.8,3.2-8.5
		c-0.7-3.9,1.1-5.9,1.4-6c0.8-0.2,0.9,0.8,1.6,0.7C60.9,18.2,61.4,17.4,61.1,16.2z M42.3,27.7c0,0.1-0.1,0.3-0.2,0.4
		c-0.3,0.6-1.4,3-3.8,3c-3.3,0-0.8-6.2,0-8.5c0.8-2.3,2.9-5.2,5.2-5c1.3,0.1,1.8,0.8,1.9,0.9l-1,3.2L42.3,27.7z"/>
	<g>
		<path class="st0" d="M50.7,42.3c0.5,0.2,0.9,0.5,1.3,0.9c0.3,0.4,0.4,0.8,0.5,1.2c0.1,0.4,0.1,0.8,0.1,1.2c0,1-0.2,1.8-0.6,2.5
			c-0.5,0.9-1.4,1.4-2.5,1.4h-3.2v-7.3h3.2C50,42.1,50.4,42.2,50.7,42.3z M47.8,43.4v4.8h1.4c0.7,0,1.2-0.4,1.5-1.1
			c0.2-0.4,0.2-0.9,0.2-1.4c0-0.7-0.1-1.3-0.4-1.7c-0.2-0.4-0.7-0.6-1.4-0.6H47.8z"/>
		<path class="st0" d="M65.3,48.8c-0.6,0.6-1.4,0.9-2.4,0.9c-1.1,0-1.9-0.3-2.4-0.9c-0.8-0.7-1.1-1.7-1.1-3c0-1.3,0.4-2.3,1.1-3
			c0.6-0.6,1.4-0.9,2.4-0.9c1.1,0,1.9,0.3,2.4,0.9c0.8,0.7,1.1,1.7,1.1,3C66.4,47.1,66.1,48.1,65.3,48.8z M64.3,47.7
			c0.4-0.4,0.5-1.1,0.5-1.9c0-0.8-0.2-1.5-0.5-1.9c-0.4-0.4-0.9-0.7-1.5-0.7c-0.6,0-1.1,0.2-1.5,0.7s-0.6,1.1-0.6,1.9
			s0.2,1.5,0.6,1.9c0.4,0.4,0.9,0.7,1.5,0.7C63.5,48.3,64,48.1,64.3,47.7z"/>
		<path class="st0" d="M74.4,42.1l1,4.2l0.2,1.2l0.2-1.1l0.8-4.2h1.6l0.9,4.2l0.2,1.2l0.2-1.1l1-4.2h1.6l-2.1,7.3h-1.5l-0.9-4.3
			l-0.3-1.4l-0.3,1.4l-0.9,4.3h-1.4l-2.1-7.3H74.4z"/>
		<path class="st0" d="M89,42.1h1.6l3,5.1v-5.1H95v7.3h-1.6l-3-5.2v5.2H89V42.1z"/>
	</g>
	<rect x="43.2" y="36.9" class="st0" width="54" height="1.3"/>
</g>
</svg>
